<?xml version="1.0" standalone="no"?>
<!DOCTYPE svg PUBLIC "-//W3C//DTD SVG 20010904//EN"
 "http://www.w3.org/TR/2001/REC-SVG-20010904/DTD/svg10.dtd">
<svg version="1.0" xmlns="http://www.w3.org/2000/svg"
 width="210px" height="49px" viewBox="0 0 347.000000 89.000000"
 preserveAspectRatio="xMidYMid meet">

<g transform="translate(0.000000,89.000000) scale(0.100000,-0.100000)"
fill="#000000" stroke="none">
<path d="M3200 763 c-11 -2 -32 -66 -70 -221 -34 -132 -62 -223 -72 -234 -10
-10 -18 -20 -18 -23 0 -3 23 -5 50 -5 28 0 50 5 50 10 0 6 -6 10 -14 10 -24 0
-27 29 -10 96 l16 64 63 0 63 0 17 -72 c15 -66 15 -73 1 -84 -27 -19 -18 -24
44 -24 33 0 60 4 60 10 0 6 -7 10 -15 10 -22 0 -29 19 -85 253 -29 119 -56
216 -59 216 -3 -1 -13 -3 -21 -6z m25 -162 c14 -56 25 -106 25 -112 0 -5 -25
-9 -56 -9 -52 0 -56 2 -51 20 3 11 15 63 28 115 13 52 24 93 26 91 2 -2 15
-49 28 -105z"/>
<path d="M30 751 c0 -5 9 -11 20 -14 19 -5 20 -14 20 -217 0 -203 -1 -212 -20
-217 -54 -14 -6 -23 123 -23 l144 0 15 55 c17 60 8 84 -13 34 -19 -47 -63 -69
-136 -69 l-63 0 0 115 0 115 49 0 c56 0 81 -17 81 -56 0 -13 5 -24 10 -24 6 0
10 35 10 85 0 50 -4 85 -10 85 -5 0 -10 -10 -10 -23 0 -35 -19 -47 -77 -47
l-53 0 0 95 0 95 66 0 c64 0 68 -2 105 -39 21 -21 40 -36 43 -34 2 3 -3 24
-11 49 l-15 44 -139 0 c-76 0 -139 -4 -139 -9z"/>
<path d="M450 751 c0 -5 9 -11 20 -14 19 -5 20 -14 20 -192 0 -210 7 -236 65
-261 45 -18 79 -18 121 2 59 28 64 50 64 259 0 178 1 187 20 192 37 10 20 23
-30 23 -27 0 -50 -4 -50 -10 0 -5 9 -10 20 -10 19 0 20 -7 20 -196 l0 -196
-29 -29 c-37 -36 -95 -40 -129 -9 -21 20 -22 28 -22 225 0 176 2 205 15 205 8
0 15 5 15 10 0 6 -27 10 -60 10 -33 0 -60 -4 -60 -9z"/>
<path d="M890 751 c0 -5 9 -11 20 -14 19 -5 20 -14 20 -217 0 -203 -1 -212
-20 -217 -41 -11 -18 -23 45 -23 37 0 65 4 65 10 0 6 -9 10 -20 10 -19 0 -20
7 -20 100 l0 100 55 0 c105 0 156 38 163 123 4 46 1 57 -23 85 -14 17 -43 36
-63 42 -45 12 -222 13 -222 1z m213 -23 c36 -19 46 -40 47 -96 0 -46 -4 -58
-29 -83 -26 -25 -37 -29 -85 -29 l-56 0 0 110 0 110 51 0 c28 0 60 -5 72 -12z"/>
<path d="M1310 751 c0 -5 9 -11 20 -14 19 -5 20 -14 20 -217 0 -203 -1 -212
-20 -217 -40 -11 -18 -23 40 -23 33 0 60 4 60 10 0 6 -7 10 -15 10 -12 0 -15
19 -15 110 l0 110 80 0 80 0 0 -106 c0 -97 -2 -106 -20 -111 -41 -11 -18 -23
45 -23 37 0 65 4 65 10 0 6 -9 10 -20 10 -19 0 -20 7 -20 220 0 189 2 220 15
220 8 0 15 5 15 10 0 6 -25 10 -55 10 -53 0 -72 -11 -40 -24 12 -4 15 -25 15
-101 l0 -95 -80 0 -80 0 0 100 c0 82 3 100 15 100 8 0 15 5 15 10 0 6 -27 10
-60 10 -33 0 -60 -4 -60 -9z"/>
<path d="M1875 751 c-68 -30 -105 -115 -105 -240 0 -75 4 -95 28 -142 65 -129
186 -131 252 -3 22 42 25 61 25 149 0 87 -4 106 -25 149 -14 27 -37 58 -51 68
-29 22 -94 32 -124 19z m97 -31 c36 -27 53 -99 52 -210 -1 -114 -15 -172 -51
-199 -83 -66 -153 28 -153 204 0 176 70 270 152 205z"/>
<path d="M2190 750 c0 -5 9 -10 19 -10 10 0 22 -7 25 -16 8 -20 8 -388 0 -408
-3 -9 -15 -16 -25 -16 -10 0 -19 -4 -19 -10 0 -6 28 -10 65 -10 63 0 86 12 45
23 -18 5 -20 14 -20 111 l0 106 33 0 c32 0 32 -1 77 -117 l45 -118 43 -3 c43
-3 60 14 20 20 -17 2 -31 24 -64 103 -23 55 -43 105 -43 110 -1 6 12 16 28 22
36 13 61 51 67 100 7 53 -23 98 -73 112 -49 14 -223 14 -223 1z m221 -39 c23
-23 29 -38 29 -71 0 -33 -6 -48 -29 -71 -25 -24 -37 -29 -80 -29 l-51 0 0 93
c0 52 3 97 7 100 3 4 26 7 50 7 36 0 50 -6 74 -29z"/>
<path d="M2670 751 c0 -6 19 -11 43 -13 l42 -3 0 -215 0 -215 -42 -3 c-24 -2
-43 -7 -43 -13 0 -5 48 -9 110 -9 62 0 110 4 110 9 0 6 -19 11 -42 13 l-43 3
0 215 0 215 43 3 c23 2 42 7 42 13 0 5 -48 9 -110 9 -62 0 -110 -4 -110 -9z"/>
<path d="M1833 197 c3 -8 11 -42 18 -76 6 -34 15 -61 19 -61 4 0 12 21 17 48
l10 47 7 -47 c5 -27 12 -48 16 -48 5 0 16 31 24 69 19 82 19 81 7 81 -6 0 -14
-19 -19 -42 l-9 -43 -7 30 c-15 59 -16 61 -26 45 -6 -8 -10 -25 -10 -37 0 -35
-18 -27 -22 9 -2 17 -9 34 -17 36 -9 3 -12 0 -8 -11z"/>
<path d="M2403 135 c0 -44 2 -64 4 -45 7 53 23 62 23 12 0 -23 5 -42 10 -42 6
0 10 21 10 46 0 37 -4 47 -19 51 -12 3 -22 16 -24 32 -2 14 -4 -10 -4 -54z"/>
<path d="M2670 135 c0 -43 4 -75 10 -75 6 0 10 15 10 34 0 19 5 38 10 41 6 4
10 -10 10 -34 0 -23 5 -41 11 -41 6 0 9 19 7 48 -2 38 -6 47 -20 46 -13 -1
-18 6 -18 27 0 16 -4 29 -10 29 -6 0 -10 -32 -10 -75z"/>
<path d="M3050 200 c0 -5 5 -10 10 -10 6 0 10 5 10 10 0 6 -4 10 -10 10 -5 0
-10 -4 -10 -10z"/>
<path d="M2335 170 c-10 -30 -7 -91 6 -104 6 -6 13 -6 21 2 9 9 9 12 0 12 -16
0 -15 57 1 63 8 4 9 8 1 14 -6 4 -13 15 -16 23 -3 11 -7 8 -13 -10z"/>
<path d="M1988 135 c-13 -30 3 -75 27 -75 19 0 20 16 0 24 -22 8 -18 26 5 26
23 0 24 4 10 31 -14 26 -28 24 -42 -6z m32 -5 c0 -5 -4 -10 -10 -10 -5 0 -10
5 -10 10 0 6 5 10 10 10 6 0 10 -4 10 -10z"/>
<path d="M2077 153 c-12 -12 -7 -22 8 -17 8 4 15 2 15 -4 0 -5 -7 -15 -15 -22
-8 -7 -15 -21 -15 -31 0 -13 7 -17 29 -17 28 1 29 3 24 37 -2 20 -6 42 -9 49
-4 13 -26 16 -37 5z"/>
<path d="M2160 109 c0 -27 5 -49 10 -49 6 0 10 13 10 29 0 16 7 36 15 45 20
20 19 24 -10 24 -23 0 -25 -4 -25 -49z"/>
<path d="M2496 145 c-10 -26 -7 -60 6 -73 15 -15 38 -16 38 -2 0 6 -7 10 -15
10 -8 0 -15 7 -15 15 0 8 7 15 16 15 10 0 14 7 12 22 -4 27 -33 36 -42 13z
m29 -15 c3 -5 1 -10 -4 -10 -6 0 -11 5 -11 10 0 6 2 10 4 10 3 0 8 -4 11 -10z"/>
<path d="M2777 153 c-12 -12 -7 -22 8 -17 21 9 19 -10 -4 -30 -26 -23 -17 -43
19 -43 27 0 28 2 23 36 -2 20 -6 42 -9 49 -4 13 -26 16 -37 5z m19 -70 c-10
-10 -19 5 -10 18 6 11 8 11 12 0 2 -7 1 -15 -2 -18z"/>
<path d="M2860 85 c0 -43 4 -75 10 -75 6 0 10 11 10 25 0 15 6 25 15 25 18 0
29 41 21 75 -5 18 -13 25 -31 25 -24 0 -25 -2 -25 -75z m40 25 c0 -16 -4 -30
-10 -30 -5 0 -10 14 -10 30 0 17 5 30 10 30 6 0 10 -13 10 -30z"/>
<path d="M2960 85 c0 -43 4 -75 10 -75 6 0 10 10 10 23 0 12 9 28 20 35 34 21
19 92 -20 92 -18 0 -20 -7 -20 -75z m40 19 c0 -13 -4 -24 -10 -24 -5 0 -10 14
-10 31 0 17 4 28 10 24 6 -3 10 -17 10 -31z"/>
<path d="M3050 110 c0 -27 5 -50 10 -50 6 0 10 23 10 50 0 28 -4 50 -10 50 -5
0 -10 -22 -10 -50z"/>
<path d="M3110 111 c0 -28 5 -51 10 -51 6 0 10 18 10 40 0 22 5 40 10 40 6 0
10 -18 10 -40 0 -22 5 -40 11 -40 6 0 9 19 7 48 -3 43 -5 47 -30 50 -27 3 -28
2 -28 -47z"/>
<path d="M3208 135 c-13 -30 3 -75 27 -75 19 0 20 16 0 24 -22 8 -18 26 5 26
23 0 24 4 10 31 -14 26 -28 24 -42 -6z m32 -5 c0 -5 -4 -10 -10 -10 -5 0 -10
5 -10 10 0 6 5 10 10 10 6 0 10 -4 10 -10z"/>
<path d="M3294 146 c-3 -8 0 -25 7 -37 9 -17 9 -24 0 -27 -16 -5 -13 -22 4
-22 22 0 29 24 14 51 -9 17 -9 24 0 27 13 4 5 22 -10 22 -5 0 -12 -6 -15 -14z"/>
<path d="M3367 148 c-2 -7 2 -25 9 -40 12 -24 12 -27 -4 -31 -16 -4 -16 -5 2
-12 27 -12 38 13 20 47 -8 16 -10 28 -4 28 5 0 10 5 10 10 0 14 -28 12 -33 -2z"/>
</g>
</svg>
