<?xml version="1.0" standalone="no"?>
<!DOCTYPE svg PUBLIC "-//W3C//DTD SVG 20010904//EN"
 "http://www.w3.org/TR/2001/REC-SVG-20010904/DTD/svg10.dtd">
<svg version="1.0" xmlns="http://www.w3.org/2000/svg"
 width="50px" height="39px" viewBox="0 0 3464.000000 3464.000000"
 preserveAspectRatio="xMidYMid meet">

<g transform="translate(0.000000,3464.000000) scale(0.100000,-0.100000)"
fill="#000000" stroke="none">
<path d="M0 17320 l0 -17320 17320 0 17320 0 0 17320 0 17320 -17320 0 -17320
0 0 -17320z m23547 2249 c64 -24 105 -87 105 -160 0 -157 -195 -224 -301 -103
-70 79 -45 195 54 255 33 21 99 25 142 8z m-13697 -204 l0 -125 -965 0 -965 0
0 -298 c0 -164 -3 -569 -7 -900 l-6 -602 836 0 837 0 0 -55 0 -55 -948 0 -949
0 -6 353 c-4 193 -7 679 -7 1080 l0 727 1090 0 1090 0 0 -125z m6410 -742 l0
-818 36 65 c61 110 115 181 203 273 190 198 406 314 683 368 135 27 336 31
443 10 159 -32 328 -103 473 -198 81 -53 250 -225 309 -313 118 -177 199 -386
218 -565 3 -33 9 -72 11 -87 l6 -28 -115 0 -114 0 -7 53 c-46 351 -291 680
-619 832 -483 223 -1053 56 -1345 -395 -81 -126 -151 -308 -168 -437 l-7 -53
-118 0 -119 0 0 1055 0 1055 115 0 115 0 0 -817z m-1655 -94 c515 -62 949
-469 1064 -998 11 -47 22 -112 26 -143 l6 -58 -90 -1 c-50 -1 -97 -2 -103 -3
-21 -3 -38 15 -38 39 0 57 -54 228 -104 330 -123 250 -323 438 -570 534 -134
52 -252 74 -401 74 -179 -1 -314 -32 -470 -111 -157 -78 -317 -217 -414 -360
-90 -133 -162 -314 -177 -443 l-7 -59 -113 0 -114 0 0 298 c0 164 -3 434 -7
600 l-6 302 116 0 117 0 2 -362 3 -363 42 75 c184 332 468 554 803 629 52 11
109 22 125 24 67 8 225 6 310 -4z m5820 0 c585 -69 1061 -549 1131 -1142 l6
-58 -113 3 -113 3 -13 75 c-34 202 -132 396 -283 554 -99 104 -184 167 -305
227 -311 152 -643 152 -950 -1 -291 -145 -508 -430 -574 -755 -11 -53 -22 -99
-25 -102 -5 -5 -218 -5 -223 1 -1 1 4 45 12 97 87 570 532 1016 1090 1094 115
16 246 18 360 4z m2585 -102 l0 -114 -84 -12 c-264 -40 -493 -204 -610 -438
-59 -118 -68 -161 -73 -355 l-5 -178 -108 0 -107 0 -6 413 c-4 226 -7 496 -7
600 l0 187 115 0 115 0 2 -257 3 -258 24 45 c52 97 123 190 206 268 140 131
319 207 493 211 l42 1 0 -113z m2530 89 c354 -77 653 -305 827 -630 l48 -91 3
368 2 367 115 0 115 0 0 -600 0 -600 -118 0 -119 0 -17 86 c-57 291 -227 548
-471 711 -302 202 -698 234 -1032 83 -225 -102 -430 -310 -539 -546 -30 -65
-69 -199 -90 -311 -4 -22 -8 -23 -114 -23 l-110 0 0 29 c0 15 7 67 15 115 94
540 523 972 1045 1052 108 17 340 11 440 -10z m-15170 -398 c0 -227 -3 -497
-7 -600 l-6 -188 -109 0 -108 0 0 600 0 600 115 0 115 0 0 -412z m2380 -188
l0 -600 -115 0 -115 0 0 600 0 600 115 0 115 0 0 -600z m10847 178 c-4 -232
-7 -502 -7 -600 l0 -178 -110 0 -110 0 0 313 c0 173 -3 443 -7 600 l-6 287
123 0 123 0 -6 -422z"/>
</g>
</svg>
